<?xml version="1.0" encoding="UTF-8" standalone="no"?>
<!DOCTYPE svg PUBLIC "-//W3C//DTD SVG 1.1//EN"
 "http://www.w3.org/Graphics/SVG/1.1/DTD/svg11.dtd">
<!-- Generated by graphviz version 2.40.1 (20161225.0304)
 -->
<!-- Title: public.todos Pages: 1 -->
<svg width="672pt" height="592pt"
 viewBox="0.00 0.00 672.00 592.00" xmlns="http://www.w3.org/2000/svg" xmlns:xlink="http://www.w3.org/1999/xlink">
<g id="graph0" class="graph" transform="scale(1 1) rotate(0) translate(4 588)">
<title>public.todos</title>
<polygon fill="#ffffff" stroke="transparent" points="-4,4 -4,-588 668,-588 668,4 -4,4"/>
<!-- public.todos -->
<g id="node1" class="node">
<title>public.todos</title>
<polygon fill="#efefef" stroke="transparent" points="316,-502.5 316,-537.5 606,-537.5 606,-502.5 316,-502.5"/>
<polygon fill="none" stroke="#000000" points="316,-502.5 316,-537.5 606,-537.5 606,-502.5 316,-502.5"/>
<text text-anchor="start" x="349.201" y="-515.3" font-family="Arial Bold" font-size="18.00" fill="#000000">public.todos</text>
<text text-anchor="start" x="445.231" y="-515.3" font-family="Arial" font-size="14.00" fill="#000000">    </text>
<text text-anchor="start" x="479.4358" y="-515.3" font-family="Arial" font-size="14.00" fill="#666666">[BASE TABLE]</text>
<polygon fill="none" stroke="#000000" points="316,-472.5 316,-502.5 606,-502.5 606,-472.5 316,-472.5"/>
<text text-anchor="start" x="323" y="-483.9" font-family="Arial" font-size="14.00" fill="#000000">id </text>
<text text-anchor="start" x="337.7798" y="-483.9" font-family="Arial" font-size="14.00" fill="#666666">[uuid]</text>
<polygon fill="none" stroke="#000000" points="316,-442.5 316,-472.5 606,-472.5 606,-442.5 316,-442.5"/>
<text text-anchor="start" x="323" y="-453.9" font-family="Arial" font-size="14.00" fill="#000000">title </text>
<text text-anchor="start" x="348.6676" y="-453.9" font-family="Arial" font-size="14.00" fill="#666666">[text]</text>
<polygon fill="none" stroke="#000000" points="316,-412.5 316,-442.5 606,-442.5 606,-412.5 316,-412.5"/>
<text text-anchor="start" x="323" y="-423.9" font-family="Arial" font-size="14.00" fill="#000000">done </text>
<text text-anchor="start" x="358.021" y="-423.9" font-family="Arial" font-size="14.00" fill="#666666">[boolean]</text>
<polygon fill="none" stroke="#000000" points="316,-382.5 316,-412.5 606,-412.5 606,-382.5 316,-382.5"/>
<text text-anchor="start" x="323" y="-393.9" font-family="Arial" font-size="14.00" fill="#000000">created_at </text>
<text text-anchor="start" x="393.028" y="-393.9" font-family="Arial" font-size="14.00" fill="#666666">[timestamp(3) without time zone]</text>
<polygon fill="none" stroke="#000000" points="316,-352.5 316,-382.5 606,-382.5 606,-352.5 316,-352.5"/>
<text text-anchor="start" x="322.9117" y="-363.9" font-family="Arial" font-size="14.00" fill="#000000">updated_at </text>
<text text-anchor="start" x="396.8443" y="-363.9" font-family="Arial" font-size="14.00" fill="#666666">[timestamp(3) without time zone]</text>
<polygon fill="none" stroke="#000000" points="316,-322.5 316,-352.5 606,-352.5 606,-322.5 316,-322.5"/>
<text text-anchor="start" x="323" y="-333.9" font-family="Arial" font-size="14.00" fill="#000000">user_id </text>
<text text-anchor="start" x="372.7882" y="-333.9" font-family="Arial" font-size="14.00" fill="#666666">[uuid]</text>
<polygon fill="none" stroke="#000000" stroke-width="3" points="314.5,-321.5 314.5,-539.5 607.5,-539.5 607.5,-321.5 314.5,-321.5"/>
</g>
<!-- public.users -->
<g id="node2" class="node">
<title>public.users</title>
<polygon fill="#efefef" stroke="transparent" points="301,-162.5 301,-197.5 621,-197.5 621,-162.5 301,-162.5"/>
<polygon fill="none" stroke="#000000" points="301,-162.5 301,-197.5 621,-197.5 621,-162.5 301,-162.5"/>
<text text-anchor="start" x="349.2091" y="-175.3" font-family="Arial Bold" font-size="18.00" fill="#000000">public.users</text>
<text text-anchor="start" x="445.2229" y="-175.3" font-family="Arial" font-size="14.00" fill="#000000">    </text>
<text text-anchor="start" x="479.4277" y="-175.3" font-family="Arial" font-size="14.00" fill="#666666">[BASE TABLE]</text>
<polygon fill="none" stroke="#000000" points="301,-132.5 301,-162.5 621,-162.5 621,-132.5 301,-132.5"/>
<text text-anchor="start" x="308" y="-143.9" font-family="Arial" font-size="14.00" fill="#000000">id    </text>
<text text-anchor="start" x="353.094" y="-143.9" font-family="Arial" font-size="14.00" fill="#666666">[uuid]</text>
<polygon fill="none" stroke="#000000" points="301,-102.5 301,-132.5 621,-132.5 621,-102.5 301,-102.5"/>
<text text-anchor="start" x="308" y="-113.9" font-family="Arial" font-size="14.00" fill="#000000">created_at    </text>
<text text-anchor="start" x="408.3422" y="-113.9" font-family="Arial" font-size="14.00" fill="#666666">[timestamp(3) without time zone]</text>
<polygon fill="none" stroke="#000000" points="301,-72.5 301,-102.5 621,-102.5 621,-72.5 301,-72.5"/>
<text text-anchor="start" x="307.7546" y="-83.9" font-family="Arial" font-size="14.00" fill="#000000">updated_at    </text>
<text text-anchor="start" x="412.0014" y="-83.9" font-family="Arial" font-size="14.00" fill="#666666">[timestamp(3) without time zone]</text>
<polygon fill="none" stroke="#000000" points="301,-42.5 301,-72.5 621,-72.5 621,-42.5 301,-42.5"/>
<text text-anchor="start" x="308" y="-53.9" font-family="Arial" font-size="14.00" fill="#000000">is_deleted    </text>
<text text-anchor="start" x="406.0042" y="-53.9" font-family="Arial" font-size="14.00" fill="#666666">[boolean]</text>
</g>
<!-- public.todos&#45;&gt;public.users -->
<g id="edge1" class="edge">
<title>public.todos:user_id&#45;&gt;public.users:id</title>
<path fill="none" stroke="#000000" d="M461.7597,-312.2119C471.9221,-248.6198 581.2527,-305.853 621,-241 642.7148,-205.5694 662.5556,-147.5 621,-147.5"/>
<polygon fill="#000000" stroke="#000000" points="461.7365,-312.5272 456.5122,-322.1686 461.3683,-317.5136 461,-322.5 461,-322.5 461,-322.5 461.3683,-317.5136 465.4878,-322.8314 461.7365,-312.5272 461.7365,-312.5272"/>
<text text-anchor="start" x="7.113" y="-332.5" font-family="Arial" font-size="10.00" fill="#000000">FOREIGN KEY (user_id) REFERENCES users(id) ON UPDATE CASCADE ON DELETE RESTRICT</text>
</g>
</g>
</svg>
