<?xml version="1.0" encoding="UTF-8" standalone="no"?>
<!DOCTYPE svg PUBLIC "-//W3C//DTD SVG 1.1//EN"
 "http://www.w3.org/Graphics/SVG/1.1/DTD/svg11.dtd">
<!-- Generated by graphviz version 2.40.1 (20161225.0304)
 -->
<!-- Title: public.users Pages: 1 -->
<svg width="672pt" height="592pt"
 viewBox="0.00 0.00 672.00 592.00" xmlns="http://www.w3.org/2000/svg" xmlns:xlink="http://www.w3.org/1999/xlink">
<g id="graph0" class="graph" transform="scale(1 1) rotate(0) translate(4 588)">
<title>public.users</title>
<polygon fill="#ffffff" stroke="transparent" points="-4,4 -4,-588 668,-588 668,4 -4,4"/>
<!-- public.users -->
<g id="node1" class="node">
<title>public.users</title>
<polygon fill="#efefef" stroke="transparent" points="316,-165.5 316,-200.5 606,-200.5 606,-165.5 316,-165.5"/>
<polygon fill="none" stroke="#000000" points="316,-165.5 316,-200.5 606,-200.5 606,-165.5 316,-165.5"/>
<text text-anchor="start" x="349.2091" y="-178.3" font-family="Arial Bold" font-size="18.00" fill="#000000">public.users</text>
<text text-anchor="start" x="445.2229" y="-178.3" font-family="Arial" font-size="14.00" fill="#000000">    </text>
<text text-anchor="start" x="479.4277" y="-178.3" font-family="Arial" font-size="14.00" fill="#666666">[BASE TABLE]</text>
<polygon fill="none" stroke="#000000" points="316,-135.5 316,-165.5 606,-165.5 606,-135.5 316,-135.5"/>
<text text-anchor="start" x="323" y="-146.9" font-family="Arial" font-size="14.00" fill="#000000">id </text>
<text text-anchor="start" x="337.7798" y="-146.9" font-family="Arial" font-size="14.00" fill="#666666">[uuid]</text>
<polygon fill="none" stroke="#000000" points="316,-105.5 316,-135.5 606,-135.5 606,-105.5 316,-105.5"/>
<text text-anchor="start" x="323" y="-116.9" font-family="Arial" font-size="14.00" fill="#000000">created_at </text>
<text text-anchor="start" x="393.028" y="-116.9" font-family="Arial" font-size="14.00" fill="#666666">[timestamp(3) without time zone]</text>
<polygon fill="none" stroke="#000000" points="316,-75.5 316,-105.5 606,-105.5 606,-75.5 316,-75.5"/>
<text text-anchor="start" x="322.9117" y="-86.9" font-family="Arial" font-size="14.00" fill="#000000">updated_at </text>
<text text-anchor="start" x="396.8443" y="-86.9" font-family="Arial" font-size="14.00" fill="#666666">[timestamp(3) without time zone]</text>
<polygon fill="none" stroke="#000000" points="316,-45.5 316,-75.5 606,-75.5 606,-45.5 316,-45.5"/>
<text text-anchor="start" x="323" y="-56.9" font-family="Arial" font-size="14.00" fill="#000000">is_deleted </text>
<text text-anchor="start" x="390.69" y="-56.9" font-family="Arial" font-size="14.00" fill="#666666">[boolean]</text>
<polygon fill="none" stroke="#000000" stroke-width="3" points="314.5,-44.5 314.5,-202.5 607.5,-202.5 607.5,-44.5 314.5,-44.5"/>
</g>
<!-- public.todos -->
<g id="node2" class="node">
<title>public.todos</title>
<polygon fill="#efefef" stroke="transparent" points="301,-505.5 301,-540.5 621,-540.5 621,-505.5 301,-505.5"/>
<polygon fill="none" stroke="#000000" points="301,-505.5 301,-540.5 621,-540.5 621,-505.5 301,-505.5"/>
<text text-anchor="start" x="349.201" y="-518.3" font-family="Arial Bold" font-size="18.00" fill="#000000">public.todos</text>
<text text-anchor="start" x="445.231" y="-518.3" font-family="Arial" font-size="14.00" fill="#000000">    </text>
<text text-anchor="start" x="479.4358" y="-518.3" font-family="Arial" font-size="14.00" fill="#666666">[BASE TABLE]</text>
<polygon fill="none" stroke="#000000" points="301,-475.5 301,-505.5 621,-505.5 621,-475.5 301,-475.5"/>
<text text-anchor="start" x="308" y="-486.9" font-family="Arial" font-size="14.00" fill="#000000">id    </text>
<text text-anchor="start" x="353.094" y="-486.9" font-family="Arial" font-size="14.00" fill="#666666">[uuid]</text>
<polygon fill="none" stroke="#000000" points="301,-445.5 301,-475.5 621,-475.5 621,-445.5 301,-445.5"/>
<text text-anchor="start" x="308" y="-456.9" font-family="Arial" font-size="14.00" fill="#000000">title    </text>
<text text-anchor="start" x="363.9818" y="-456.9" font-family="Arial" font-size="14.00" fill="#666666">[text]</text>
<polygon fill="none" stroke="#000000" points="301,-415.5 301,-445.5 621,-445.5 621,-415.5 301,-415.5"/>
<text text-anchor="start" x="308" y="-426.9" font-family="Arial" font-size="14.00" fill="#000000">done    </text>
<text text-anchor="start" x="373.3352" y="-426.9" font-family="Arial" font-size="14.00" fill="#666666">[boolean]</text>
<polygon fill="none" stroke="#000000" points="301,-385.5 301,-415.5 621,-415.5 621,-385.5 301,-385.5"/>
<text text-anchor="start" x="308" y="-396.9" font-family="Arial" font-size="14.00" fill="#000000">created_at    </text>
<text text-anchor="start" x="408.3422" y="-396.9" font-family="Arial" font-size="14.00" fill="#666666">[timestamp(3) without time zone]</text>
<polygon fill="none" stroke="#000000" points="301,-355.5 301,-385.5 621,-385.5 621,-355.5 301,-355.5"/>
<text text-anchor="start" x="307.7546" y="-366.9" font-family="Arial" font-size="14.00" fill="#000000">updated_at    </text>
<text text-anchor="start" x="412.0014" y="-366.9" font-family="Arial" font-size="14.00" fill="#666666">[timestamp(3) without time zone]</text>
<polygon fill="none" stroke="#000000" points="301,-325.5 301,-355.5 621,-355.5 621,-325.5 301,-325.5"/>
<text text-anchor="start" x="308" y="-336.9" font-family="Arial" font-size="14.00" fill="#000000">user_id    </text>
<text text-anchor="start" x="388.1024" y="-336.9" font-family="Arial" font-size="14.00" fill="#666666">[uuid]</text>
</g>
<!-- public.todos&#45;&gt;public.users -->
<g id="edge1" class="edge">
<title>public.todos:user_id&#45;&gt;public.users:id</title>
<path fill="none" stroke="#000000" d="M461.8083,-315.3165C471.7368,-257.7704 570.3975,-306.7596 606,-247 627.9512,-210.1544 648.8889,-150.5 606,-150.5"/>
<polygon fill="#000000" stroke="#000000" points="461.7914,-315.5314 456.5141,-325.1439 461.3957,-320.5157 461,-325.5 461,-325.5 461,-325.5 461.3957,-320.5157 465.4859,-325.8561 461.7914,-315.5314 461.7914,-315.5314"/>
<text text-anchor="start" x="7.113" y="-335.5" font-family="Arial" font-size="10.00" fill="#000000">FOREIGN KEY (user_id) REFERENCES users(id) ON UPDATE CASCADE ON DELETE RESTRICT</text>
</g>
</g>
</svg>
