<?xml version="1.0" encoding="UTF-8" standalone="no"?>
<!DOCTYPE svg PUBLIC "-//W3C//DTD SVG 1.1//EN"
 "http://www.w3.org/Graphics/SVG/1.1/DTD/svg11.dtd">
<!-- Generated by graphviz version 2.40.1 (20161225.0304)
 -->
<!-- Title: postgres Pages: 1 -->
<svg width="672pt" height="586pt"
 viewBox="0.00 0.00 672.00 586.00" xmlns="http://www.w3.org/2000/svg" xmlns:xlink="http://www.w3.org/1999/xlink">
<g id="graph0" class="graph" transform="scale(1 1) rotate(0) translate(4 582)">
<title>postgres</title>
<polygon fill="#ffffff" stroke="transparent" points="-4,4 -4,-582 668,-582 668,4 -4,4"/>
<!-- public.users -->
<g id="node1" class="node">
<title>public.users</title>
<polygon fill="#efefef" stroke="transparent" points="301,-162.5 301,-197.5 621,-197.5 621,-162.5 301,-162.5"/>
<polygon fill="none" stroke="#000000" points="301,-162.5 301,-197.5 621,-197.5 621,-162.5 301,-162.5"/>
<text text-anchor="start" x="349.2091" y="-175.3" font-family="Arial Bold" font-size="18.00" fill="#000000">public.users</text>
<text text-anchor="start" x="445.2229" y="-175.3" font-family="Arial" font-size="14.00" fill="#000000">    </text>
<text text-anchor="start" x="479.4277" y="-175.3" font-family="Arial" font-size="14.00" fill="#666666">[BASE TABLE]</text>
<polygon fill="none" stroke="#000000" points="301,-132.5 301,-162.5 621,-162.5 621,-132.5 301,-132.5"/>
<text text-anchor="start" x="308" y="-143.9" font-family="Arial" font-size="14.00" fill="#000000">id    </text>
<text text-anchor="start" x="353.094" y="-143.9" font-family="Arial" font-size="14.00" fill="#666666">[uuid]</text>
<polygon fill="none" stroke="#000000" points="301,-102.5 301,-132.5 621,-132.5 621,-102.5 301,-102.5"/>
<text text-anchor="start" x="308" y="-113.9" font-family="Arial" font-size="14.00" fill="#000000">created_at    </text>
<text text-anchor="start" x="408.3422" y="-113.9" font-family="Arial" font-size="14.00" fill="#666666">[timestamp(3) without time zone]</text>
<polygon fill="none" stroke="#000000" points="301,-72.5 301,-102.5 621,-102.5 621,-72.5 301,-72.5"/>
<text text-anchor="start" x="307.7546" y="-83.9" font-family="Arial" font-size="14.00" fill="#000000">updated_at    </text>
<text text-anchor="start" x="412.0014" y="-83.9" font-family="Arial" font-size="14.00" fill="#666666">[timestamp(3) without time zone]</text>
<polygon fill="none" stroke="#000000" points="301,-42.5 301,-72.5 621,-72.5 621,-42.5 301,-42.5"/>
<text text-anchor="start" x="308" y="-53.9" font-family="Arial" font-size="14.00" fill="#000000">is_deleted    </text>
<text text-anchor="start" x="406.0042" y="-53.9" font-family="Arial" font-size="14.00" fill="#666666">[boolean]</text>
</g>
<!-- public.todos -->
<g id="node2" class="node">
<title>public.todos</title>
<polygon fill="#efefef" stroke="transparent" points="301,-499.5 301,-534.5 621,-534.5 621,-499.5 301,-499.5"/>
<polygon fill="none" stroke="#000000" points="301,-499.5 301,-534.5 621,-534.5 621,-499.5 301,-499.5"/>
<text text-anchor="start" x="349.201" y="-512.3" font-family="Arial Bold" font-size="18.00" fill="#000000">public.todos</text>
<text text-anchor="start" x="445.231" y="-512.3" font-family="Arial" font-size="14.00" fill="#000000">    </text>
<text text-anchor="start" x="479.4358" y="-512.3" font-family="Arial" font-size="14.00" fill="#666666">[BASE TABLE]</text>
<polygon fill="none" stroke="#000000" points="301,-469.5 301,-499.5 621,-499.5 621,-469.5 301,-469.5"/>
<text text-anchor="start" x="308" y="-480.9" font-family="Arial" font-size="14.00" fill="#000000">id    </text>
<text text-anchor="start" x="353.094" y="-480.9" font-family="Arial" font-size="14.00" fill="#666666">[uuid]</text>
<polygon fill="none" stroke="#000000" points="301,-439.5 301,-469.5 621,-469.5 621,-439.5 301,-439.5"/>
<text text-anchor="start" x="308" y="-450.9" font-family="Arial" font-size="14.00" fill="#000000">title    </text>
<text text-anchor="start" x="363.9818" y="-450.9" font-family="Arial" font-size="14.00" fill="#666666">[text]</text>
<polygon fill="none" stroke="#000000" points="301,-409.5 301,-439.5 621,-439.5 621,-409.5 301,-409.5"/>
<text text-anchor="start" x="308" y="-420.9" font-family="Arial" font-size="14.00" fill="#000000">done    </text>
<text text-anchor="start" x="373.3352" y="-420.9" font-family="Arial" font-size="14.00" fill="#666666">[boolean]</text>
<polygon fill="none" stroke="#000000" points="301,-379.5 301,-409.5 621,-409.5 621,-379.5 301,-379.5"/>
<text text-anchor="start" x="308" y="-390.9" font-family="Arial" font-size="14.00" fill="#000000">created_at    </text>
<text text-anchor="start" x="408.3422" y="-390.9" font-family="Arial" font-size="14.00" fill="#666666">[timestamp(3) without time zone]</text>
<polygon fill="none" stroke="#000000" points="301,-349.5 301,-379.5 621,-379.5 621,-349.5 301,-349.5"/>
<text text-anchor="start" x="307.7546" y="-360.9" font-family="Arial" font-size="14.00" fill="#000000">updated_at    </text>
<text text-anchor="start" x="412.0014" y="-360.9" font-family="Arial" font-size="14.00" fill="#666666">[timestamp(3) without time zone]</text>
<polygon fill="none" stroke="#000000" points="301,-319.5 301,-349.5 621,-349.5 621,-319.5 301,-319.5"/>
<text text-anchor="start" x="308" y="-330.9" font-family="Arial" font-size="14.00" fill="#000000">user_id    </text>
<text text-anchor="start" x="388.1024" y="-330.9" font-family="Arial" font-size="14.00" fill="#666666">[uuid]</text>
</g>
<!-- public.todos&#45;&gt;public.users -->
<g id="edge1" class="edge">
<title>public.todos:user_id&#45;&gt;public.users:id</title>
<path fill="none" stroke="#000000" d="M461.7585,-309.3021C471.9048,-246.3628 581.068,-305.0707 621,-241 642.9799,-205.7332 662.5556,-147.5 621,-147.5"/>
<polygon fill="#000000" stroke="#000000" points="461.7418,-309.5275 456.5124,-319.1662 461.3709,-314.5138 461,-319.5 461,-319.5 461,-319.5 461.3709,-314.5138 465.4876,-319.8338 461.7418,-309.5275 461.7418,-309.5275"/>
<text text-anchor="start" x="7.113" y="-329.5" font-family="Arial" font-size="10.00" fill="#000000">FOREIGN KEY (user_id) REFERENCES users(id) ON UPDATE CASCADE ON DELETE RESTRICT</text>
</g>
</g>
</svg>
